<mxfile host="app.diagrams.net" modified="2024-05-10T20:31:20.239Z" agent="Mozilla/5.0 (Windows NT 10.0; Win64; x64) AppleWebKit/537.36 (KHTML, like Gecko) Chrome/124.0.0.0 Safari/537.36 Edg/124.0.0.0" etag="Y9hm0Va9tOUqDNO7kmjC" version="24.3.1" type="github">
  <diagram id="C5RBs43oDa-KdzZeNtuy" name="Page-1">
    <mxGraphModel dx="1452" dy="796" grid="1" gridSize="10" guides="1" tooltips="1" connect="1" arrows="1" fold="1" page="1" pageScale="1" pageWidth="1654" pageHeight="1169" math="0" shadow="0">
      <root>
        <mxCell id="WIyWlLk6GJQsqaUBKTNV-0" />
        <mxCell id="WIyWlLk6GJQsqaUBKTNV-1" parent="WIyWlLk6GJQsqaUBKTNV-0" />
        <mxCell id="Ok1g1s4KcjB2tpEZXEhJ-4" style="edgeStyle=orthogonalEdgeStyle;rounded=0;orthogonalLoop=1;jettySize=auto;html=1;exitX=0.5;exitY=1;exitDx=0;exitDy=0;exitPerimeter=0;" parent="WIyWlLk6GJQsqaUBKTNV-1" source="Ok1g1s4KcjB2tpEZXEhJ-0" target="Ok1g1s4KcjB2tpEZXEhJ-3" edge="1">
          <mxGeometry relative="1" as="geometry" />
        </mxCell>
        <mxCell id="Ok1g1s4KcjB2tpEZXEhJ-0" value="start" style="strokeWidth=2;html=1;shape=mxgraph.flowchart.start_1;whiteSpace=wrap;" parent="WIyWlLk6GJQsqaUBKTNV-1" vertex="1">
          <mxGeometry x="764" y="40" width="80" height="50" as="geometry" />
        </mxCell>
        <mxCell id="Ok1g1s4KcjB2tpEZXEhJ-8" style="edgeStyle=orthogonalEdgeStyle;rounded=0;orthogonalLoop=1;jettySize=auto;html=1;entryX=0.5;entryY=0.233;entryDx=0;entryDy=0;entryPerimeter=0;" parent="WIyWlLk6GJQsqaUBKTNV-1" source="Ok1g1s4KcjB2tpEZXEhJ-1" target="Ok1g1s4KcjB2tpEZXEhJ-7" edge="1">
          <mxGeometry relative="1" as="geometry" />
        </mxCell>
        <mxCell id="Ok1g1s4KcjB2tpEZXEhJ-1" value="Ultrasonic sensor&lt;br&gt;(distance)" style="shape=parallelogram;html=1;strokeWidth=2;perimeter=parallelogramPerimeter;whiteSpace=wrap;rounded=1;arcSize=12;size=0.23;" parent="WIyWlLk6GJQsqaUBKTNV-1" vertex="1">
          <mxGeometry x="612" y="190" width="152" height="40" as="geometry" />
        </mxCell>
        <mxCell id="Ok1g1s4KcjB2tpEZXEhJ-12" style="edgeStyle=orthogonalEdgeStyle;rounded=0;orthogonalLoop=1;jettySize=auto;html=1;" parent="WIyWlLk6GJQsqaUBKTNV-1" source="Ok1g1s4KcjB2tpEZXEhJ-2" target="Ok1g1s4KcjB2tpEZXEhJ-11" edge="1">
          <mxGeometry relative="1" as="geometry" />
        </mxCell>
        <mxCell id="Ok1g1s4KcjB2tpEZXEhJ-2" value="TSD sensor&lt;br&gt;(ppm)" style="shape=parallelogram;html=1;strokeWidth=2;perimeter=parallelogramPerimeter;whiteSpace=wrap;rounded=1;arcSize=12;size=0.23;" parent="WIyWlLk6GJQsqaUBKTNV-1" vertex="1">
          <mxGeometry x="875" y="190" width="152" height="40" as="geometry" />
        </mxCell>
        <mxCell id="Ok1g1s4KcjB2tpEZXEhJ-5" style="edgeStyle=orthogonalEdgeStyle;rounded=0;orthogonalLoop=1;jettySize=auto;html=1;entryX=0.5;entryY=0;entryDx=0;entryDy=0;" parent="WIyWlLk6GJQsqaUBKTNV-1" source="Ok1g1s4KcjB2tpEZXEhJ-3" target="Ok1g1s4KcjB2tpEZXEhJ-1" edge="1">
          <mxGeometry relative="1" as="geometry" />
        </mxCell>
        <mxCell id="Ok1g1s4KcjB2tpEZXEhJ-6" style="edgeStyle=orthogonalEdgeStyle;rounded=0;orthogonalLoop=1;jettySize=auto;html=1;entryX=0.5;entryY=0;entryDx=0;entryDy=0;" parent="WIyWlLk6GJQsqaUBKTNV-1" source="Ok1g1s4KcjB2tpEZXEhJ-3" target="Ok1g1s4KcjB2tpEZXEhJ-2" edge="1">
          <mxGeometry relative="1" as="geometry" />
        </mxCell>
        <mxCell id="Ok1g1s4KcjB2tpEZXEhJ-3" value="" style="strokeWidth=2;html=1;shape=mxgraph.flowchart.start_2;whiteSpace=wrap;" parent="WIyWlLk6GJQsqaUBKTNV-1" vertex="1">
          <mxGeometry x="794" y="140" width="20" height="20" as="geometry" />
        </mxCell>
        <mxCell id="Ok1g1s4KcjB2tpEZXEhJ-7" value="&lt;div&gt;&lt;br&gt;&lt;/div&gt;water max&lt;div&gt;water min&lt;/div&gt;" style="html=1;strokeWidth=2;shape=manualInput;whiteSpace=wrap;rounded=1;size=26;arcSize=11;" parent="WIyWlLk6GJQsqaUBKTNV-1" vertex="1">
          <mxGeometry x="623" y="270" width="130" height="60" as="geometry" />
        </mxCell>
        <mxCell id="Ok1g1s4KcjB2tpEZXEhJ-19" style="edgeStyle=orthogonalEdgeStyle;rounded=0;orthogonalLoop=1;jettySize=auto;html=1;exitX=0;exitY=0.5;exitDx=0;exitDy=0;exitPerimeter=0;entryX=0.5;entryY=0;entryDx=0;entryDy=0;entryPerimeter=0;" parent="WIyWlLk6GJQsqaUBKTNV-1" source="Ok1g1s4KcjB2tpEZXEhJ-9" target="Ok1g1s4KcjB2tpEZXEhJ-21" edge="1">
          <mxGeometry relative="1" as="geometry">
            <mxPoint x="530" y="480" as="targetPoint" />
          </mxGeometry>
        </mxCell>
        <mxCell id="Ok1g1s4KcjB2tpEZXEhJ-9" value="distance &amp;gt;=water min" style="strokeWidth=2;html=1;shape=mxgraph.flowchart.decision;whiteSpace=wrap;" parent="WIyWlLk6GJQsqaUBKTNV-1" vertex="1">
          <mxGeometry x="591.5" y="390" width="193" height="70" as="geometry" />
        </mxCell>
        <mxCell id="Ok1g1s4KcjB2tpEZXEhJ-10" style="edgeStyle=orthogonalEdgeStyle;rounded=0;orthogonalLoop=1;jettySize=auto;html=1;exitX=0.5;exitY=1;exitDx=0;exitDy=0;entryX=0.5;entryY=0;entryDx=0;entryDy=0;entryPerimeter=0;" parent="WIyWlLk6GJQsqaUBKTNV-1" source="Ok1g1s4KcjB2tpEZXEhJ-7" target="Ok1g1s4KcjB2tpEZXEhJ-9" edge="1">
          <mxGeometry relative="1" as="geometry" />
        </mxCell>
        <mxCell id="Ok1g1s4KcjB2tpEZXEhJ-13" style="edgeStyle=orthogonalEdgeStyle;rounded=0;orthogonalLoop=1;jettySize=auto;html=1;" parent="WIyWlLk6GJQsqaUBKTNV-1" source="Ok1g1s4KcjB2tpEZXEhJ-11" edge="1">
          <mxGeometry relative="1" as="geometry">
            <mxPoint x="1141.0000000000002" y="390" as="targetPoint" />
          </mxGeometry>
        </mxCell>
        <mxCell id="Ok1g1s4KcjB2tpEZXEhJ-16" style="edgeStyle=orthogonalEdgeStyle;rounded=0;orthogonalLoop=1;jettySize=auto;html=1;entryX=0.5;entryY=0;entryDx=0;entryDy=0;entryPerimeter=0;" parent="WIyWlLk6GJQsqaUBKTNV-1" source="Ok1g1s4KcjB2tpEZXEhJ-11" target="Ok1g1s4KcjB2tpEZXEhJ-39" edge="1">
          <mxGeometry relative="1" as="geometry">
            <mxPoint x="951" y="460" as="targetPoint" />
          </mxGeometry>
        </mxCell>
        <mxCell id="Ok1g1s4KcjB2tpEZXEhJ-11" value="ppm &amp;lt;= 250" style="strokeWidth=2;html=1;shape=mxgraph.flowchart.decision;whiteSpace=wrap;" parent="WIyWlLk6GJQsqaUBKTNV-1" vertex="1">
          <mxGeometry x="855" y="290" width="192" height="70" as="geometry" />
        </mxCell>
        <mxCell id="Ok1g1s4KcjB2tpEZXEhJ-14" value="&lt;h5 style=&quot;line-height: 19px;&quot;&gt;&lt;font style=&quot;font-size: 12px;&quot;&gt;&lt;span style=&quot;white-space: pre; font-weight: normal;&quot;&gt;Water is&lt;font style=&quot;&quot; face=&quot;Helvetica&quot;&gt; &lt;/font&gt;drinkable&lt;/span&gt;&lt;/font&gt;&lt;/h5&gt;" style="shape=display;whiteSpace=wrap;html=1;size=0.14285714285714285;" parent="WIyWlLk6GJQsqaUBKTNV-1" vertex="1">
          <mxGeometry x="1040" y="390" width="140" height="40" as="geometry" />
        </mxCell>
        <mxCell id="Ok1g1s4KcjB2tpEZXEhJ-15" value="yes" style="text;html=1;align=center;verticalAlign=middle;resizable=0;points=[];autosize=1;strokeColor=none;fillColor=none;" parent="WIyWlLk6GJQsqaUBKTNV-1" vertex="1">
          <mxGeometry x="1051" y="300" width="40" height="30" as="geometry" />
        </mxCell>
        <mxCell id="Ok1g1s4KcjB2tpEZXEhJ-18" value="no" style="text;html=1;align=center;verticalAlign=middle;resizable=0;points=[];autosize=1;strokeColor=none;fillColor=none;" parent="WIyWlLk6GJQsqaUBKTNV-1" vertex="1">
          <mxGeometry x="950" y="370" width="40" height="30" as="geometry" />
        </mxCell>
        <mxCell id="Ok1g1s4KcjB2tpEZXEhJ-25" style="edgeStyle=orthogonalEdgeStyle;rounded=0;orthogonalLoop=1;jettySize=auto;html=1;entryX=0.5;entryY=0;entryDx=0;entryDy=0;" parent="WIyWlLk6GJQsqaUBKTNV-1" source="Ok1g1s4KcjB2tpEZXEhJ-21" target="Ok1g1s4KcjB2tpEZXEhJ-27" edge="1">
          <mxGeometry relative="1" as="geometry">
            <mxPoint x="645" y="565" as="targetPoint" />
          </mxGeometry>
        </mxCell>
        <mxCell id="Ok1g1s4KcjB2tpEZXEhJ-21" value="" style="strokeWidth=2;html=1;shape=mxgraph.flowchart.start_2;whiteSpace=wrap;" parent="WIyWlLk6GJQsqaUBKTNV-1" vertex="1">
          <mxGeometry x="520" y="490" width="20" height="20" as="geometry" />
        </mxCell>
        <mxCell id="Ok1g1s4KcjB2tpEZXEhJ-23" value="&lt;h5 style=&quot;line-height: 19px;&quot;&gt;&lt;span style=&quot;font-size: 12px; font-weight: 400; white-space: pre;&quot;&gt;The water will run out.&lt;/span&gt;&lt;br&gt;&lt;/h5&gt;" style="shape=display;whiteSpace=wrap;html=1;size=0.14285714285714285;" parent="WIyWlLk6GJQsqaUBKTNV-1" vertex="1">
          <mxGeometry x="370" y="570" width="140" height="40" as="geometry" />
        </mxCell>
        <mxCell id="Ok1g1s4KcjB2tpEZXEhJ-24" style="edgeStyle=orthogonalEdgeStyle;rounded=0;orthogonalLoop=1;jettySize=auto;html=1;" parent="WIyWlLk6GJQsqaUBKTNV-1" source="Ok1g1s4KcjB2tpEZXEhJ-21" edge="1">
          <mxGeometry relative="1" as="geometry">
            <mxPoint x="450" y="570" as="targetPoint" />
          </mxGeometry>
        </mxCell>
        <mxCell id="Ok1g1s4KcjB2tpEZXEhJ-28" style="edgeStyle=orthogonalEdgeStyle;rounded=0;orthogonalLoop=1;jettySize=auto;html=1;entryX=0.5;entryY=0;entryDx=0;entryDy=0;entryPerimeter=0;" parent="WIyWlLk6GJQsqaUBKTNV-1" source="Ok1g1s4KcjB2tpEZXEhJ-27" target="Ok1g1s4KcjB2tpEZXEhJ-29" edge="1">
          <mxGeometry relative="1" as="geometry">
            <mxPoint x="685" y="690" as="targetPoint" />
          </mxGeometry>
        </mxCell>
        <mxCell id="Ok1g1s4KcjB2tpEZXEhJ-27" value="solenoid valve = HIGTH" style="shape=parallelogram;html=1;strokeWidth=2;perimeter=parallelogramPerimeter;whiteSpace=wrap;rounded=1;arcSize=12;size=0.23;" parent="WIyWlLk6GJQsqaUBKTNV-1" vertex="1">
          <mxGeometry x="580" y="570" width="210" height="40" as="geometry" />
        </mxCell>
        <mxCell id="Ok1g1s4KcjB2tpEZXEhJ-35" style="edgeStyle=orthogonalEdgeStyle;rounded=0;orthogonalLoop=1;jettySize=auto;html=1;" parent="WIyWlLk6GJQsqaUBKTNV-1" source="Ok1g1s4KcjB2tpEZXEhJ-29" target="Ok1g1s4KcjB2tpEZXEhJ-31" edge="1">
          <mxGeometry relative="1" as="geometry" />
        </mxCell>
        <mxCell id="Ok1g1s4KcjB2tpEZXEhJ-29" value="distance &amp;lt;= water max" style="strokeWidth=2;html=1;shape=mxgraph.flowchart.decision;whiteSpace=wrap;" parent="WIyWlLk6GJQsqaUBKTNV-1" vertex="1">
          <mxGeometry x="604" y="690" width="162" height="70" as="geometry" />
        </mxCell>
        <mxCell id="Ok1g1s4KcjB2tpEZXEhJ-30" style="edgeStyle=orthogonalEdgeStyle;rounded=0;orthogonalLoop=1;jettySize=auto;html=1;entryX=0.5;entryY=0;entryDx=0;entryDy=0;" parent="WIyWlLk6GJQsqaUBKTNV-1" source="Ok1g1s4KcjB2tpEZXEhJ-31" target="Ok1g1s4KcjB2tpEZXEhJ-34" edge="1">
          <mxGeometry relative="1" as="geometry">
            <mxPoint x="800" y="905" as="targetPoint" />
          </mxGeometry>
        </mxCell>
        <mxCell id="Ok1g1s4KcjB2tpEZXEhJ-31" value="" style="strokeWidth=2;html=1;shape=mxgraph.flowchart.start_2;whiteSpace=wrap;" parent="WIyWlLk6GJQsqaUBKTNV-1" vertex="1">
          <mxGeometry x="675" y="830" width="20" height="20" as="geometry" />
        </mxCell>
        <mxCell id="Ok1g1s4KcjB2tpEZXEhJ-32" value="&lt;h5 style=&quot;line-height: 19px;&quot;&gt;&lt;span style=&quot;font-size: 12px; font-weight: 400; white-space: pre;&quot;&gt;The water is full.&lt;/span&gt;&lt;br&gt;&lt;/h5&gt;" style="shape=display;whiteSpace=wrap;html=1;size=0.14285714285714285;" parent="WIyWlLk6GJQsqaUBKTNV-1" vertex="1">
          <mxGeometry x="525" y="910" width="140" height="40" as="geometry" />
        </mxCell>
        <mxCell id="Ok1g1s4KcjB2tpEZXEhJ-33" style="edgeStyle=orthogonalEdgeStyle;rounded=0;orthogonalLoop=1;jettySize=auto;html=1;" parent="WIyWlLk6GJQsqaUBKTNV-1" source="Ok1g1s4KcjB2tpEZXEhJ-31" edge="1">
          <mxGeometry relative="1" as="geometry">
            <mxPoint x="605" y="910" as="targetPoint" />
          </mxGeometry>
        </mxCell>
        <mxCell id="Ok1g1s4KcjB2tpEZXEhJ-34" value="solenoid valve = LOW" style="shape=parallelogram;html=1;strokeWidth=2;perimeter=parallelogramPerimeter;whiteSpace=wrap;rounded=1;arcSize=12;size=0.23;" parent="WIyWlLk6GJQsqaUBKTNV-1" vertex="1">
          <mxGeometry x="735" y="910" width="210" height="40" as="geometry" />
        </mxCell>
        <mxCell id="Ok1g1s4KcjB2tpEZXEhJ-39" value="tdsValue &amp;gt; 250 &amp;amp;&amp;amp; tdsValue &amp;lt; 500" style="strokeWidth=2;html=1;shape=mxgraph.flowchart.decision;whiteSpace=wrap;" parent="WIyWlLk6GJQsqaUBKTNV-1" vertex="1">
          <mxGeometry x="803.5" y="460" width="295" height="70" as="geometry" />
        </mxCell>
        <mxCell id="Ok1g1s4KcjB2tpEZXEhJ-44" value="END" style="strokeWidth=2;html=1;shape=mxgraph.flowchart.start_1;whiteSpace=wrap;" parent="WIyWlLk6GJQsqaUBKTNV-1" vertex="1">
          <mxGeometry x="800" y="1040" width="80" height="50" as="geometry" />
        </mxCell>
        <mxCell id="LHPRh5calL3W1cEzTOZp-0" value="yes" style="text;html=1;align=center;verticalAlign=middle;resizable=0;points=[];autosize=1;strokeColor=none;fillColor=none;" parent="WIyWlLk6GJQsqaUBKTNV-1" vertex="1">
          <mxGeometry x="551.5" y="395" width="40" height="30" as="geometry" />
        </mxCell>
        <mxCell id="LHPRh5calL3W1cEzTOZp-1" value="yes" style="text;html=1;align=center;verticalAlign=middle;resizable=0;points=[];autosize=1;strokeColor=none;fillColor=none;" parent="WIyWlLk6GJQsqaUBKTNV-1" vertex="1">
          <mxGeometry x="691" y="780" width="40" height="30" as="geometry" />
        </mxCell>
        <mxCell id="LHPRh5calL3W1cEzTOZp-2" value="no" style="text;html=1;align=center;verticalAlign=middle;resizable=0;points=[];autosize=1;strokeColor=none;fillColor=none;" parent="WIyWlLk6GJQsqaUBKTNV-1" vertex="1">
          <mxGeometry x="950" y="540" width="40" height="30" as="geometry" />
        </mxCell>
        <mxCell id="LHPRh5calL3W1cEzTOZp-6" style="edgeStyle=orthogonalEdgeStyle;rounded=0;orthogonalLoop=1;jettySize=auto;html=1;exitX=0.5;exitY=1;exitDx=0;exitDy=0;entryX=0.5;entryY=0;entryDx=0;entryDy=0;entryPerimeter=0;" parent="WIyWlLk6GJQsqaUBKTNV-1" source="Ok1g1s4KcjB2tpEZXEhJ-34" target="Ok1g1s4KcjB2tpEZXEhJ-44" edge="1">
          <mxGeometry relative="1" as="geometry" />
        </mxCell>
        <mxCell id="zqLwtPevEamrhEhXI_3O-1" value="&lt;div style=&quot;font-size: 14px; line-height: 19px; white-space: pre;&quot;&gt;&lt;span style=&quot;background-color: rgb(255, 255, 255);&quot;&gt;&lt;font face=&quot;Helvetica&quot;&gt;Water is not suitable for drinking&lt;/font&gt;&lt;/span&gt;&lt;/div&gt;" style="shape=display;whiteSpace=wrap;html=1;align=center;size=0.136;" vertex="1" parent="WIyWlLk6GJQsqaUBKTNV-1">
          <mxGeometry x="799" y="650" width="304" height="40" as="geometry" />
        </mxCell>
        <mxCell id="zqLwtPevEamrhEhXI_3O-4" value="yes" style="text;html=1;align=center;verticalAlign=middle;resizable=0;points=[];autosize=1;strokeColor=none;fillColor=none;" vertex="1" parent="WIyWlLk6GJQsqaUBKTNV-1">
          <mxGeometry x="1098.5" y="470" width="40" height="30" as="geometry" />
        </mxCell>
        <mxCell id="Ok1g1s4KcjB2tpEZXEhJ-17" value="&lt;h5 style=&quot;line-height: 19px;&quot;&gt;&lt;div style=&quot;font-weight: normal; line-height: 19px; white-space: pre;&quot;&gt;&lt;font style=&quot;font-size: 12px;&quot; face=&quot;Helvetica&quot;&gt;Filter cartridge should be replaced&lt;/font&gt;&lt;/div&gt;&lt;/h5&gt;" style="shape=display;whiteSpace=wrap;html=1;align=center;size=0.136;" parent="WIyWlLk6GJQsqaUBKTNV-1" vertex="1">
          <mxGeometry x="1095" y="565" width="250" height="40" as="geometry" />
        </mxCell>
        <mxCell id="zqLwtPevEamrhEhXI_3O-7" style="edgeStyle=orthogonalEdgeStyle;rounded=0;orthogonalLoop=1;jettySize=auto;html=1;exitX=1;exitY=0.5;exitDx=0;exitDy=0;exitPerimeter=0;entryX=0;entryY=0;entryDx=132;entryDy=0;entryPerimeter=0;" edge="1" parent="WIyWlLk6GJQsqaUBKTNV-1" source="Ok1g1s4KcjB2tpEZXEhJ-39" target="Ok1g1s4KcjB2tpEZXEhJ-17">
          <mxGeometry relative="1" as="geometry" />
        </mxCell>
        <mxCell id="zqLwtPevEamrhEhXI_3O-11" style="edgeStyle=orthogonalEdgeStyle;rounded=0;orthogonalLoop=1;jettySize=auto;html=1;exitX=0.5;exitY=1;exitDx=0;exitDy=0;exitPerimeter=0;entryX=0.497;entryY=0.074;entryDx=0;entryDy=0;entryPerimeter=0;" edge="1" parent="WIyWlLk6GJQsqaUBKTNV-1" source="Ok1g1s4KcjB2tpEZXEhJ-39" target="zqLwtPevEamrhEhXI_3O-1">
          <mxGeometry relative="1" as="geometry" />
        </mxCell>
      </root>
    </mxGraphModel>
  </diagram>
</mxfile>
